# xmcd
#
# Track frame offsets: 
#        150
#        13090
#        24816
#        36260
#        48040
#        58935
#        71574
#        81238
#        92363
#        103976
#        116183
#        128861
#        139474
#        150124
#        167982
#        179883
#        192377
#        206060
#        218294
#        228981
#        239570
#        251900
#        261473
#        272549
#        285036
#        296266
#        306732
#        315916
#        328655
#        340853
#        350692
#        361278
#
# Disc length: 4964 seconds
#
# Revision: 0
# Processed by: cddbd v1.5.2PL0 Copyright (c) Steve Scherf et al.
# Submitted via: ExactAudioCopy v0.99pb4
#
DISCID=e8136220
DTITLE=Various Artist - Country and Western Hit Parade 1960
DYEAR=2011
DGENRE=Country
TTITLE0=Johnny Horton - North To Alaska
TTITLE1=Bill Anderson - The Tip Of My Fingers
TTITLE2=Webb Pierce - No Love Have I
TTITLE3=George Jones - The Window Up Above
TTITLE4=Hank Locklin - Please Help Me, I'm Falling
TTITLE5=Skeeter Davis - (I Can't Help You) I'm Falling Too
TTITLE6=Johnny Cash - Smiling Bill McCall
TTITLE7=Buck Owens - Above And Beyond
TTITLE8=Charlie Ryan and The Timberline Riders - Hot Rod Lincoln
TTITLE9=Hank Snow - Miller's Cave
TTITLE10=Don Gibson - Just One Time
TTITLE11=Stonewall Jackson - Why I'm Walkin'
TTITLE12=Cowboy Copas - Alabam
TTITLE13=Marty Robbins - Big Iron
TTITLE14=Lester Flatt and Earl Scruggs - Crying My Heart Out Over You
TTITLE15=John D. Loudermilk - Tobacco Road
TTITLE16=Claude Gray - Family Bible
TTITLE17=Carl Smith - Cut Across Shorty
TTITLE18=Jim Reeves - He'll Have To Go
TTITLE19=Ferlin Husky - Wings Of A Dove
TTITLE20=Roy Drusky - Another
TTITLE21=Bob Luman - Let's Think About Living
TTITLE22=Don Gibson - (I'd Be) A Legend In My Time
TTITLE23=Wynn Stewart - Wishful Thinking
TTITLE24=Buck Owens - Excuse Me (I Think I've Got A Heartache)
TTITLE25=Loretta Lynn - I'm A Honky Tonk Girl
TTITLE26=Roger Miller - You Don't Want My Love
TTITLE27=Ray Price - One More Time
TTITLE28=George Morgan - You're The Only Good Thing (That's Happened T
TTITLE28=o Me)
TTITLE29=Hank Thompson - A Six Pack To Go
TTITLE30=Faron Young - Riverboat
TTITLE31=Floyd Cramer - Last Date
EXTD=
EXTT0=
EXTT1=
EXTT2=
EXTT3=
EXTT4=
EXTT5=
EXTT6=
EXTT7=
EXTT8=
EXTT9=
EXTT10=
EXTT11=
EXTT12=
EXTT13=
EXTT14=
EXTT15=
EXTT16=
EXTT17=
EXTT18=
EXTT19=
EXTT20=
EXTT21=
EXTT22=
EXTT23=
EXTT24=
EXTT25=
EXTT26=
EXTT27=
EXTT28=
EXTT29=
EXTT30=
EXTT31=
PLAYORDER=
